<svg width="50" height="60" viewBox="0 0 50 60" fill="none" xmlns="http://www.w3.org/2000/svg">
<path d="M47.2039 12.3696C49.0759 12.773 50 14.956 50 17.4357C50 20.5679 48.3887 22.7747 45.7585 22.7747C43.1047 22.7747 41.4697 20.4493 41.4697 17.3645C41.4697 14.9679 42.4649 12.7374 44.3724 12.3696L44.5856 14.6713C43.8392 15.0035 43.2587 15.9526 43.2587 17.3052C43.2587 19.2035 44.2539 20.473 45.7348 20.473C47.2395 20.473 48.1873 19.1679 48.1873 17.3526C48.1873 16.012 47.7252 14.9916 46.9907 14.6713L47.2039 12.3696Z" fill="#31493C"/>
<path d="M50 6.02256C50 9.19037 48.3532 11.3853 45.7348 11.3853C43.1165 11.3853 41.4697 9.19037 41.4697 6.02256C41.4697 2.85475 43.1165 0.659826 45.7348 0.659826C48.3532 0.659826 50 2.85475 50 6.02256ZM48.2465 6.02256C48.2465 4.21916 47.2158 2.92594 45.7348 2.92594C44.2539 2.92594 43.2231 4.21916 43.2231 6.02256C43.2231 7.81409 44.2539 9.11918 45.7348 9.11918C47.2158 9.11918 48.2465 7.81409 48.2465 6.02256Z" fill="#31493C"/>
<path d="M7.30886 49.5171C7.8894 49.4696 8.30407 49.4222 8.69504 49.173H8.9083V51.4154C8.56471 51.6646 8.06711 51.7239 7.45103 51.7832L7.19038 51.8188C6.43213 51.8781 5.98192 52.4832 5.98192 53.4324V56.3154H8.9083V58.4748H0.614921V52.4951C0.614921 50.2052 1.76415 49.3273 3.0437 49.3273C4.19292 49.3273 4.82085 50.0747 5.02226 50.9646H5.06965C5.21182 49.9323 5.91083 49.6239 6.81126 49.5527L7.30886 49.5171ZM4.27585 52.8747C4.27585 52.151 3.97966 51.6052 3.32804 51.6052C2.64087 51.6052 2.34468 52.1747 2.34468 52.8747V56.3154H4.27585V52.8747Z" fill="#31493C"/>
<path d="M8.9083 39.8153L7.17854 40.6814V45.4035L8.9083 46.2577V48.6306L0.614921 44.395V41.7018L8.9083 37.4543V39.8153ZM5.5554 44.5967V41.5001L2.4987 43.0306V43.078L5.5554 44.5967Z" fill="#31493C"/>
<path d="M32.8892 6.92884H8.48294V13.0034H30.1879V19.9323H8.48294V26.2916H32.8892V33.2205H0V0H32.8892V6.92884Z" fill="#31493C"/>
<path d="M17.0149 52.5912L41.4211 52.5912V46.5166H19.7161V39.5877H41.4211V33.2284H17.0149V26.2995H49.904V59.52H17.0149V52.5912Z" fill="#31493C"/>
<path d="M7.92098 12.952H33.0973V20.3673H7.92098V12.952Z" fill="#31493C"/>
<path d="M16.8067 39.1527H41.9831V46.568H16.8067V39.1527Z" fill="#31493C"/>
</svg>
